# xmcd
#
# Track frame offsets:
#	183
#	16795
#	35170
#	47995
#	65770
#	78595
#	100645
#	115345
#	129970
#	144520
#	176320
#	198295
#	209770
#	231520
#	251170
#
# Disc length: 3524 seconds
# Revision: 3
# Processed by: cddbd v1.5.2PL0 Copyright (c) Steve Scherf et al.
# Submitted via: dBpowerAMP V12.0
#
DISCID=da0dc20f
DTITLE=Various Artist - The Tomato Sampler, Disc 2
DYEAR=1991
DGENRE=Blues
TTITLE0=Rocky Hill - Rock n Roll
TTITLE1=Asleep At The Wheel - Miles and Miles of Tears
TTITLE2=Robert Cray - Too Many Cooks
TTITLE3=Dave Brubeck - In Your Own Sweet Way
TTITLE4=Chopin and Bach - Prelude no8 in F# minor - Prelude no14
TTITLE5=John Cage - Forever and Sunsmell
TTITLE6=Bach and Hess - Jesu, Joy of Man's Desiring
TTITLE7=Mississippi Fred Mcdowell - You Got To Move
TTITLE8=Brownie McGhee - Walk On
TTITLE9=Sam Rivers - Torch
TTITLE10=Ruben Y Alfonso Ramos and Texas Revolution - Volver Volver
TTITLE11=Dick Gregory - Black Progress
TTITLE12=John Lee Hooker - One Room Country Shack
TTITLE13=Tribute To Leadbelly - Burgeois Blues
TTITLE14=Leadbelly - Midnight Special
EXTD=
EXTT0=
EXTT1=
EXTT2=
EXTT3=
EXTT4=
EXTT5=
EXTT6=
EXTT7=
EXTT8=
EXTT9=
EXTT10=
EXTT11=
EXTT12=
EXTT13=
EXTT14=
PLAYORDER=
